<svg xmlns="http://www.w3.org/2000/svg" xmlns:xlink="http://www.w3.org/1999/xlink" version="1.1" style="" xml:space="preserve" width="341.67768725315796" height="123.63636478277908"><rect id="backgroundrect" width="100%" height="100%" x="0" y="0" fill="none" stroke="none" class="" style=""/>
<style type="text/css">
	.st0{fill:url(#SVGID_1_);}
	.st1{fill:url(#SVGID_2_);}
	.st2{fill:url(#SVGID_3_);}
	.st3{fill:url(#SVGID_4_);}
	.st4{fill:url(#SVGID_5_);}
	.st5{fill:url(#SVGID_6_);}
	.st6{fill:url(#SVGID_7_);}
	.st7{fill:url(#SVGID_8_);}
</style>

<g class="currentLayer" style=""><title>Layer 1</title><g id="svg_1" class="">
	<g id="svg_2">
		<g id="svg_3">
			<linearGradient id="SVGID_1_" gradientUnits="userSpaceOnUse" x1="63.10940170288086" y1="101.02559661865234" x2="390.402587890625" y2="107.07060241699219" transform="translate(0,0.8264462947845459) translate(0,-0.8264462947845459) translate(-0.8264462947845459,0) translate(-0.8264462947845459,0) translate(-0.8264462947845459,0) translate(-0.8264462947845459,0) translate(-0.8264462947845459,0) translate(-0.8264462947845459,0) translate(-0.8264462947845459,0) translate(-0.8264462947845459,0) translate(-0.8264462947845459,0) translate(-0.8264462947845459,0) translate(-0.8264462947845459,0) translate(-0.8264462947845459,0) translate(-0.8264462947845459,0) translate(-22.314048767089844,-40.49586486816406) translate(29.685951232910156,1.5810129642486572) scale(0.9843550324440002,1) translate(-29.685951232910156,-1.5810129642486572) ">
				<stop offset="0" style="stop-color:#F18447"/>
				<stop offset="0.367" style="stop-color:#CE3359"/>
				<stop offset="0.642" style="stop-color:#14438E"/>
				<stop offset="0.9973" style="stop-color:#007ECC"/>
			</linearGradient>
			<path class="st0" d="M193.21236434459686,44.56413513183594 l-6.713301321268082,11.47 c7.559846649169922,4.09 12.146941100358962,6.47 14.981883593797685,8.1 c1.3682534950971605,0.79 2.500261782407761,1.55 2.500261782407761,2.31 c0,0.7600000000000021 -0.9548243814706806,1.06 -2.7561940908432003,1.06 c-5.778164040446281,0 -17.659329282045366,0 -17.659329282045366,0 l-0.06890485227108054,14.94 c0,0 5.660041436553001,0 13.347854239940643,0 c11.753199087381363,0 15.670932116508483,-5.47 15.670932116508483,-16.41 C212.51556653082372,57.304135131835935 208.15487373709678,52.88413513183593 193.21236434459686,44.56413513183594 z" id="svg_4"/>
			<linearGradient id="SVGID_2_" gradientUnits="userSpaceOnUse" x1="62.95840072631836" y1="109.20570373535156" x2="390.2514953613281" y2="115.25060272216797" transform="translate(0,0.8264462947845459) translate(0,-0.8264462947845459) translate(-0.8264462947845459,0) translate(-0.8264462947845459,0) translate(-0.8264462947845459,0) translate(-0.8264462947845459,0) translate(-0.8264462947845459,0) translate(-0.8264462947845459,0) translate(-0.8264462947845459,0) translate(-0.8264462947845459,0) translate(-0.8264462947845459,0) translate(-0.8264462947845459,0) translate(-0.8264462947845459,0) translate(-0.8264462947845459,0) translate(-0.8264462947845459,0) translate(-22.314048767089844,-40.49586486816406) translate(29.685951232910156,1.5810129642486572) scale(0.9843550324440002,1) translate(-29.685951232910156,-1.5810129642486572) ">
				<stop offset="0" style="stop-color:#F18447"/>
				<stop offset="0.367" style="stop-color:#CE3359"/>
				<stop offset="0.642" style="stop-color:#14438E"/>
				<stop offset="0.9973" style="stop-color:#007ECC"/>
			</linearGradient>
			<path class="st1" d="M299.56208204984665,51.834135131835936 c0,0 0,5.94 0,8.4 c0,5.07 -0.40358556330204254,7.27 -5.256455873250961,7.27 h-7.540159548521042 c3.0810312515497205,-3.2 3.4747732645273213,-6.2 3.4747732645273213,-9.6 c0,-7.8 -4.400066995024681,-11.4 -14.046746312975882,-11.4 c-7.550003098845481,0 -12.058349147439003,0 -16.28123223662376,0 L257.48090441286564,61.50413513183594 c0.6595178717374806,1.13 2.559323084354401,3.5300000000000002 4.724904155731201,6 h-6.831423925161362 h-10.040421330928801 c0,-12.33 -5.059584866762161,-17.41 -13.790814004540444,-17.41 c-10.178231035470962,0 -14.509393178224563,9.07 -14.509393178224563,18.07 c0,7.8 1.3682534950971605,14.01 9.843550324440002,14.01 h10.640877900719643 c0,2.36 -0.5413952678442002,4.15 -3.5535216671228413,4.15 c-4.400066995024681,0 -14.322365722060205,0 -14.322365722060205,0 v12.79 c0,0 7.559846649169922,0 12.678492817878723,0 c10.040421330928801,0 12.284750804901124,-6.15 12.284750804901124,-16.94 h12.009131395816802 c6.693614220619201,0 12.471778261065483,-0.6700000000000025 17.531363127827643,-4.8 c4.5280331492423995,4.27 9.252937304973603,4.8 17.068716262578963,4.8 l5.837225342392921,0 c9.006848546862603,0 11.950070093870163,-4.05 11.950070093870163,-15.52 c0,-3.13 0,-14.82 0,-14.82 H299.56208204984665 zM226.74934029996396,67.83413513183594 c-1.5651245015859605,0 -2.3526085275411606,-1.18 -2.3526085275411606,-2.18 c0,-1.87 1.653716454505921,-2.6900000000000004 3.140092553496361,-2.6900000000000004 c1.7915261590480804,0 6.073470550179481,0 6.5459609657526014,0 c3.130249003171921,0 3.445242613554001,1.03 3.445242613554001,4.87 H226.74934029996396 zM275.5339757078886,67.10413513183593 c-1.899805212616925,-1.47 -8.012649964094162,-7.8 -8.012649964094162,-7.8 s4.272100840806961,0 7.225165938138962,0 c5.709259188175201,0 7.6779692530632015,0.6700000000000025 7.6779692530632015,2.47 C282.4244609349966,63.50413513183594 280.2588798636198,65.37413513183594 275.5339757078886,67.10413513183593 z" id="svg_5"/>
		</g>
		<linearGradient id="SVGID_3_" gradientUnits="userSpaceOnUse" x1="63.59090042114258" y1="74.95819854736328" x2="390.88409423828125" y2="81.0031967163086" transform="translate(0,0.8264462947845459) translate(0,-0.8264462947845459) translate(-0.8264462947845459,0) translate(-0.8264462947845459,0) translate(-0.8264462947845459,0) translate(-0.8264462947845459,0) translate(-0.8264462947845459,0) translate(-0.8264462947845459,0) translate(-0.8264462947845459,0) translate(-0.8264462947845459,0) translate(-0.8264462947845459,0) translate(-0.8264462947845459,0) translate(-0.8264462947845459,0) translate(-0.8264462947845459,0) translate(-0.8264462947845459,0) translate(-22.314048767089844,-40.49586486816406) translate(29.685951232910156,1.5810129642486572) scale(0.9843550324440002,1) translate(-29.685951232910156,-1.5810129642486572) ">
			<stop offset="0" style="stop-color:#F18447"/>
			<stop offset="0.367" style="stop-color:#CE3359"/>
			<stop offset="0.642" style="stop-color:#14438E"/>
			<stop offset="0.9973" style="stop-color:#007ECC"/>
		</linearGradient>
		<rect x="299.48333364725113" y="34.764137268066406" class="st2" width="9.528557014459238" height="9.680000305175781" id="svg_6"/>
		<g id="svg_7">
			<g id="svg_8">
				<linearGradient id="SVGID_4_" gradientUnits="userSpaceOnUse" x1="62.8385009765625" y1="115.6946029663086" x2="390.1317138671875" y2="121.7396011352539" transform="translate(0,0.8264462947845459) translate(0,-0.8264462947845459) translate(-0.8264462947845459,0) translate(-0.8264462947845459,0) translate(-0.8264462947845459,0) translate(-0.8264462947845459,0) translate(-0.8264462947845459,0) translate(-0.8264462947845459,0) translate(-0.8264462947845459,0) translate(-0.8264462947845459,0) translate(-0.8264462947845459,0) translate(-0.8264462947845459,0) translate(-0.8264462947845459,0) translate(-0.8264462947845459,0) translate(-0.8264462947845459,0) translate(-22.314048767089844,-40.49586486816406) translate(29.685951232910156,1.5810129642486572) scale(0.9843550324440002,1) translate(-29.685951232910156,-1.5810129642486572) ">
					<stop offset="0" style="stop-color:#F18447"/>
					<stop offset="0.367" style="stop-color:#CE3359"/>
					<stop offset="0.642" style="stop-color:#14438E"/>
					<stop offset="0.9973" style="stop-color:#007ECC"/>
				</linearGradient>
				<path class="st3" d="M55.90468086898326,52.164135131835934 c0,0 0,21.58 0,26.64 c0,3.88 -1.3091921931505204,5.6400000000000015 -7.018451381325722,5.6400000000000015 c-2.7561940908432003,0 -8.209520970582961,0 -8.209520970582961,0 v14.67 c0,0 6.506586764454842,0 10.975558611750603,0 c11.093681215643882,0 14.105807614922524,-4.97 14.105807614922524,-21.44 c0,-6 0,-25.51 0,-25.51 H55.90468086898326 z" id="svg_9"/>
				<linearGradient id="SVGID_5_" gradientUnits="userSpaceOnUse" x1="63.07400131225586" y1="102.94730377197266" x2="390.3670959472656" y2="108.99230194091797" transform="translate(0,0.8264462947845459) translate(0,-0.8264462947845459) translate(-0.8264462947845459,0) translate(-0.8264462947845459,0) translate(-0.8264462947845459,0) translate(-0.8264462947845459,0) translate(-0.8264462947845459,0) translate(-0.8264462947845459,0) translate(-0.8264462947845459,0) translate(-0.8264462947845459,0) translate(-0.8264462947845459,0) translate(-0.8264462947845459,0) translate(-0.8264462947845459,0) translate(-0.8264462947845459,0) translate(-0.8264462947845459,0) translate(-22.314048767089844,-40.49586486816406) translate(29.685951232910156,1.5810129642486572) scale(0.9843550324440002,1) translate(-29.685951232910156,-1.5810129642486572) ">
					<stop offset="0" style="stop-color:#F18447"/>
					<stop offset="0.367" style="stop-color:#CE3359"/>
					<stop offset="0.642" style="stop-color:#14438E"/>
					<stop offset="0.9973" style="stop-color:#007ECC"/>
				</linearGradient>
				<path class="st4" d="M153.66097914099694,82.51413513183594 C153.66097914099694,82.51413513183594 153.66097914099694,82.51413513183594 153.66097914099694,82.51413513183594 C153.66097914099694,82.51413513183594 153.66097914099694,82.51413513183594 153.66097914099694,82.51413513183594 l5.738789839148522,0 c10.178231035470962,0 10.276666538715363,-9.49 10.276666538715363,-16.4 c0,-3.13 0,-13.95 0,-13.95 h-9.449808311462402 c0,0 0,7.05 0,9.52 c0,5.07 0.01968710064888001,6.15 -4.843026759624481,6.15 c-1.3091921931505204,0 -4.213039538860321,-0.07 -5.197394571304321,-0.13 l-0.06890485227108054,-11.34 c-12.540683113336563,-1.33 -14.204243118166923,-11.75 -29.284562215209007,-11.75 c-7.815778957605362,0 -11.753199087381363,0 -11.753199087381363,0 v12.67 c0,0 2.2246423733234404,0 8.721385587453842,0 c7.796091856956481,0 12.678492817878723,5.69 17.669172832369803,7.22 c-2.09667621910572,0.6000000000000006 -5.2367687726020815,3.35 -18.564935911893844,3.35 h-9.676209968924523 h-0.08859195291996041 c-4.134291136264801,0 -5.473013980388642,-2.63 -5.9061301946640015,-4.48 c-0.3543678116798426,-1.51 -0.40358556330204254,-6 -7.0676691329479215,-10.82 c-2.3722956281900407,-1.7200000000000002 -7.727187004685401,-5.27 -12.186315301656723,-8 l-6.024252798557281,11.870000000000001 c13.692378501296044,8.51 15.287033653855323,9.21 15.296877204179763,10.46 c0.00984355032444004,1.24 -1.6635600048303605,1.1600000000000001 -5.9947221475839605,1.1600000000000001 c-8.603262983560562,0 -14.095964064598084,0 -14.095964064598084,0 l-0.06890485227108054,14.74 c0,0 3.415711962580681,0 11.162586067914962,0 c7.6189079511165625,0 11.093681215643882,-3 12.343812106847762,-7.8 c2.559323084354401,4.87 5.975035046935082,7.54 12.540683113336563,7.54 l0.09843550324440058,-0.020000000000000066 l12.274907254576684,0.020000000000000066 c13.308480038642882,0 17.659329282045366,-7.8 21.596749411821367,-9.8 C141.6420041948557,79.37413513183594 144.2013272792101,82.51413513183594 153.66097914099694,82.51413513183594 L153.66097914099694,82.51413513183594 z" id="svg_10"/>
			</g>
			<linearGradient id="SVGID_6_" gradientUnits="userSpaceOnUse" x1="63.58980178833008" y1="75.01709747314453" x2="390.88299560546875" y2="81.06210327148438" transform="translate(0,0.8264462947845459) translate(0,-0.8264462947845459) translate(-0.8264462947845459,0) translate(-0.8264462947845459,0) translate(-0.8264462947845459,0) translate(-0.8264462947845459,0) translate(-0.8264462947845459,0) translate(-0.8264462947845459,0) translate(-0.8264462947845459,0) translate(-0.8264462947845459,0) translate(-0.8264462947845459,0) translate(-0.8264462947845459,0) translate(-0.8264462947845459,0) translate(-0.8264462947845459,0) translate(-0.8264462947845459,0) translate(-22.314048767089844,-40.49586486816406) translate(29.685951232910156,1.5810129642486572) scale(0.9843550324440002,1) translate(-29.685951232910156,-1.5810129642486572) ">
				<stop offset="0" style="stop-color:#F18447"/>
				<stop offset="0.367" style="stop-color:#CE3359"/>
				<stop offset="0.642" style="stop-color:#14438E"/>
				<stop offset="0.9973" style="stop-color:#007ECC"/>
			</linearGradient>
			<rect x="75.77880687121842" y="30.62413787841797" class="st5" width="9.528557014459238" height="9.680000305175781" id="svg_11"/>
			<linearGradient id="SVGID_7_" gradientUnits="userSpaceOnUse" x1="62.531898498535156" y1="132.29449462890625" x2="389.8251037597656" y2="138.3394012451172" transform="translate(0,0.8264462947845459) translate(0,-0.8264462947845459) translate(-0.8264462947845459,0) translate(-0.8264462947845459,0) translate(-0.8264462947845459,0) translate(-0.8264462947845459,0) translate(-0.8264462947845459,0) translate(-0.8264462947845459,0) translate(-0.8264462947845459,0) translate(-0.8264462947845459,0) translate(-0.8264462947845459,0) translate(-0.8264462947845459,0) translate(-0.8264462947845459,0) translate(-0.8264462947845459,0) translate(-0.8264462947845459,0) translate(-22.314048767089844,-40.49586486816406) translate(29.685951232910156,1.5810129642486572) scale(0.9843550324440002,1) translate(-29.685951232910156,-1.5810129642486572) ">
				<stop offset="0" style="stop-color:#F18447"/>
				<stop offset="0.367" style="stop-color:#CE3359"/>
				<stop offset="0.642" style="stop-color:#14438E"/>
				<stop offset="0.9973" style="stop-color:#007ECC"/>
			</linearGradient>
			<rect x="156.67310373786768" y="89.43412780761719" class="st6" width="9.528557014459238" height="9.680000305175781" id="svg_12"/>
		</g>
	</g>
	<linearGradient id="SVGID_8_" gradientUnits="userSpaceOnUse" x1="51.993499755859375" y1="101.24019622802734" x2="368.9513854980469" y2="101.24019622802734" transform="translate(0,0.8264462947845459) translate(0,-0.8264462947845459) translate(-0.8264462947845459,0) translate(-0.8264462947845459,0) translate(-0.8264462947845459,0) translate(-0.8264462947845459,0) translate(-0.8264462947845459,0) translate(-0.8264462947845459,0) translate(-0.8264462947845459,0) translate(-0.8264462947845459,0) translate(-0.8264462947845459,0) translate(-0.8264462947845459,0) translate(-0.8264462947845459,0) translate(-0.8264462947845459,0) translate(-0.8264462947845459,0) translate(-22.314048767089844,-40.49586486816406) translate(29.685951232910156,1.5810129642486572) scale(0.9843550324440002,1) translate(-29.685951232910156,-1.5810129642486572) ">
		<stop offset="0" style="stop-color:#F18447"/>
		<stop offset="0.367" style="stop-color:#CE3359"/>
		<stop offset="0.642" style="stop-color:#14438E"/>
		<stop offset="0.9973" style="stop-color:#007ECC"/>
	</linearGradient>
	<path class="st7" d="M158.75009465873242,20.544135131835937 c1.0335727840662003,0.3400000000000013 2.0573020178079604,0.6700000000000025 3.0810312515497205,0.9600000000000006 c1.0335727840662003,0.28 2.0573020178079604,0.55 3.0908748018741607,0.7600000000000021 c2.0671455681324007,0.4 4.134291136264801,0.6500000000000021 6.1522189527750015,0.5800000000000006 c2.0179278165102,-0.05000000000000015 3.9866378813982006,-0.39000000000000107 5.896286644339562,-0.9600000000000006 c1.9096487629413603,-0.5700000000000006 3.779923324584961,-1.37 5.669884986877441,-2.25 c3.770079774260521,-1.78 7.6779692530632015,-3.84 11.881165241599083,-5.39 c1.0434163343906404,-0.4 2.1065197694301605,-0.7600000000000021 3.189310305118561,-1.09 c1.0729469853639604,-0.33000000000000107 2.1557375210523606,-0.6400000000000021 3.2582151573896407,-0.91 c2.1852681720256806,-0.55 4.409910545349121,-0.93 6.634552918672562,-1.24 c2.2246423733234404,-0.3000000000000003 4.459128296971321,-0.4900000000000003 6.693614220619201,-0.5900000000000006 c1.1123211866617202,-0.05000000000000015 2.2344859236478807,-0.08000000000000022 3.3468071103096007,-0.09000000000000036 l3.2089974057674406,-0.0300000000000001 l87.36150912940502,-0.14 c0.9745114821195602,-0.010000000000000035 2.3821391785144805,-0.010000000000000035 3.6322700697183614,0.15000000000000024 c1.2796615421772004,0.15000000000000024 2.5494795340299605,0.4100000000000003 3.779923324584961,0.8 c4.951305813193321,1.53 9.292311506271362,4.92 12.009131395816802,9.37 c1.3682534950971605,2.22 2.3427649772167203,4.69 2.864473144412041,7.26 c0.25593230843544007,1.29 0.3937420129776014,2.59 0.4232726639509219,3.9 l0.00984355032444004,0.4900000000000003 l0,0.4100000000000003 v0.8200000000000006 v1.6300000000000003 v26.1 v26.1 v6.52 v3.26 v0.8200000000000006 l-0.01968710064888001,0.9600000000000006 c-0.029530650973320118,0.6500000000000021 -0.06890485227108054,1.31 -0.15749680519104106,1.9500000000000002 c-0.3248371607065203,2.6 -1.1123211866617202,5.15 -2.3230778765678406,7.46 c-1.2107566899061202,2.3200000000000003 -2.825098943114281,4.41 -4.744591256380081,6.15 c-3.8291410762071614,3.5 -8.967474345564842,5.53 -14.115651165246963,5.57 l-12.895050925016402,0.010000000000000035 h-25.69166634678841 h-51.38333269357682 h-102.76666538715364 h-51.38333269357682 H52.607091510295874 h-6.4278383618593224 h-3.2089974057674406 h-1.604498702883721 l-0.8071711266040833,0 l-0.9646679317951202,-0.020000000000000066 c-2.569166634678841,-0.12000000000000002 -5.128489719033241,-0.7100000000000006 -7.510628897547722,-1.7400000000000002 c-2.3722956281900407,-1.03 -4.557563800215721,-2.5 -6.417994811534881,-4.3 c-1.8604310113191609,-1.8 -3.415711962580681,-3.94 -4.547720249891281,-6.3 c-1.1320082873106,-2.36 -1.8407439106702816,-4.93 -2.0868326687812813,-7.53 l-0.06890485227108054,-0.98 L18.94214940071106,98.03413513183594 l0,-1.6500000000000008 v-3.26 v-6.53 v-13.05 v-26.1 V34.39413513183594 v-1.6300000000000003 v-0.4100000000000003 v-0.2 L18.94214940071106,31.904135131835943 c0.00984355032444004,-0.33000000000000107 0.00984355032444004,-0.6500000000000021 0.029530650973320118,-0.98 c0.06890485227108054,-1.31 0.25593230843544007,-2.6100000000000003 0.5610823684930806,-3.88 c0.6004565697908383,-2.55 1.653716454505921,-4.99 3.0908748018741607,-7.17 c2.8743166947364807,-4.34 7.313757891058922,-7.61 12.314281455874443,-8.96 c1.2501308912038804,-0.3400000000000013 2.5199488830566406,-0.5700000000000006 3.8094539755582812,-0.6800000000000026 c0.6398307710886006,-0.06000000000000017 1.2993486428260803,-0.08000000000000022 1.9194923132658006,-0.08000000000000022 h1.604498702883721 h6.417994811534881 l86.06216048657895,-0.010000000000000035 l6.349089959263802,0.0300000000000001 c2.0573020178079604,-0.010000000000000035 4.1047604852914805,-0.09000000000000036 6.132531852126122,-0.26 c4.065386283993721,-0.32000000000000106 8.0717112660408,-0.9600000000000006 12.028818496465684,-1.97 c1.9785536152124403,-0.5 3.937420129776001,-1.11 5.915973744988441,-1.79 c1.9687100648880005,-0.6800000000000026 3.947263680100441,-1.44 6.004565697908401,-2.19 c2.0474584674835206,-0.7400000000000019 4.183508887887001,-1.47 6.447525462508201,-1.9300000000000002 c1.1320082873106,-0.23 2.2837036752700812,-0.4 3.4550861638784407,-0.44000000000000095 c1.1615389382839203,-0.04000000000000011 2.3329214268922813,0.010000000000000035 3.4747732645273213,0.17 c1.1418518376350404,0.15000000000000024 2.254173024296761,0.4300000000000003 3.3271200096607205,0.78 c1.0729469853639604,0.3500000000000003 2.1065197694301605,0.7600000000000021 3.1007183521986006,1.25 c1.9883971655368806,0.9600000000000006 3.8389846265316008,2.13 5.581293033957481,3.42 c-2.0080842661857607,-0.79 -4.0358556330204,-1.51 -6.083314100503921,-2.01 c-2.0376149171590803,-0.5 -4.094916934967041,-0.78 -6.093157650828362,-0.7000000000000006 c-1.99824071586132,0.07 -3.9078894788026806,0.52 -5.778164040446281,1.21 c-1.8702745616436003,0.7000000000000006 -3.701174921989441,1.6400000000000001 -5.581293033957481,2.62 c-3.7405491232872006,1.99 -7.727187004685401,4.08 -11.969757194519044,5.6 c-4.232726639509201,1.54 -8.682011386156082,2.56 -13.131296132802962,3.09 c-2.2246423733234404,0.26 -4.459128296971321,0.4300000000000003 -6.683770670294762,0.51 c-0.5610823684930806,0.020000000000000066 -1.1123211866617202,0.0300000000000001 -1.6734035551548008,0.05000000000000015 c-0.5512388181686406,0.010000000000000035 -1.0729469853639604,0.010000000000000035 -1.6143422532081608,0.010000000000000035 l-3.2089974057674406,0.010000000000000035 l-86.06216048657895,-0.010000000000000035 h-6.417994811534881 h-1.604498702883721 c-0.4528033149242414,0.010000000000000035 -0.8662324285507206,0.020000000000000066 -1.2895050925016405,0.06000000000000017 c-0.8465453279018404,0.07 -1.6930906558036842,0.2200000000000005 -2.5101053327322003,0.45 c-3.2877458083629607,0.8900000000000021 -6.221123805046082,3.05 -8.130772567987442,5.92 c-0.9548243814706806,1.44 -1.6438729041814808,3.04 -2.0376149171590803,4.72 c-0.1968710064888002,0.8400000000000006 -0.3248371607065203,1.7000000000000002 -0.3740549123287211,2.56 c-0.00984355032444004,0.2200000000000005 -0.00984355032444004,0.4300000000000003 -0.01968710064888001,0.6500000000000021 l0,0.16000000000000053 v0.2 v0.4100000000000003 v1.6300000000000003 v13.05 v26.1 v13.05 v6.53 v3.26 l0,1.61 l0.01968710064888001,0.6500000000000021 l0.04921775162220017,0.6500000000000021 c0.16734035551548118,1.7200000000000002 0.6299872207641606,3.41 1.3682534950971605,4.96 c0.7382662743330006,1.56 1.7718390583992005,2.9699999999999998 3.0121263992786407,4.17 c1.2402873408794404,1.19 2.6774456882476807,2.17 4.242570189833642,2.85 c1.5651245015859605,0.6800000000000026 3.2483716070652005,1.06 4.951305813193321,1.15 l25.524325991272924,0.020000000000000066 h51.38333269357682 h102.76666538715364 h51.38333269357682 h25.69166634678841 l12.796615421772003,-0.010000000000000035 c3.415711962580681,-0.0300000000000001 6.772362623214722,-1.36 9.321842157244683,-3.68 c2.5494795340299605,-2.31 4.2622572904825216,-5.55 4.6658428537845635,-8.98 c0.0590613019466402,-0.4300000000000003 0.08859195291996041,-0.8600000000000019 0.10827905356884027,-1.29 l0.01968710064888001,-0.6700000000000025 v-0.8200000000000006 v-3.26 v-6.52 v-26.1 v-26.1 v-1.6300000000000003 v-0.8200000000000006 l0,-0.4 l-0.00984355032444004,-0.33000000000000107 c-0.01968710064888001,-0.8700000000000019 -0.10827905356884027,-1.73 -0.2756194090843203,-2.58 c-0.3445242613554033,-1.6900000000000008 -0.9843550324440021,-3.3200000000000003 -1.8899616622924817,-4.79 c-1.8013697093725205,-2.95 -4.695373504757881,-5.17 -7.933901561498643,-6.19 c-0.8071711266040833,-0.26 -1.6438729041814808,-0.4300000000000003 -2.490418232083321,-0.53 c-0.8662324285507206,-0.1 -1.6143422532081608,-0.11000000000000022 -2.775881191492081,-0.11000000000000022 l-87.36150912940502,-0.14 l-3.2089974057674406,-0.0300000000000001 c-1.0237292337417603,0 -2.0573020178079604,0 -3.0810312515497205,0.04000000000000011 c-2.0474584674835206,0.06000000000000017 -4.085073384642602,0.21000000000000021 -6.112844751477241,0.44000000000000095 c-4.0456991833448415,0.4900000000000003 -8.012649964094162,1.32 -11.959913644194604,2.44 c-3.9571072304248807,1.1 -7.884683809876441,2.59 -12.117410449385643,3.92 c-2.1163633197546003,0.6500000000000021 -4.3213185924291615,1.23 -6.6148658180236835,1.52 c-2.2837036752700812,0.3000000000000003 -4.636312202811241,0.2900000000000003 -6.880641676783562,-0.08000000000000022 C166.3493155092001,24.974135131835936 162.33314697682857,22.974135131835936 158.75009465873242,20.544135131835937 z" id="svg_13"/>
</g></g></svg>