<?xml version="1.0" encoding="UTF-8" standalone="no"?>
<svg
   xmlns:dc="http://purl.org/dc/elements/1.1/"
   xmlns:cc="http://creativecommons.org/ns#"
   xmlns:rdf="http://www.w3.org/1999/02/22-rdf-syntax-ns#"
   xmlns:svg="http://www.w3.org/2000/svg"
   xmlns="http://www.w3.org/2000/svg"
   xmlns:sodipodi="http://sodipodi.sourceforge.net/DTD/sodipodi-0.dtd"
   xmlns:inkscape="http://www.inkscape.org/namespaces/inkscape"
   version="1.1"
   id="Layer_1"
   x="0px"
   y="0px"
   width="99.999992"
   height="33.247467"
   viewBox="0 0 99.999992 33.247467"
   enable-background="new 0 0 800 600"
   xml:space="preserve"
   sodipodi:docname="mada.svg"
   inkscape:version="0.92.1 r15371"><metadata
     id="metadata3686"><rdf:RDF><cc:Work
         rdf:about=""><dc:format>image/svg+xml</dc:format><dc:type
           rdf:resource="http://purl.org/dc/dcmitype/StillImage" /><dc:title></dc:title></cc:Work></rdf:RDF></metadata><defs
     id="defs3684" /><sodipodi:namedview
     pagecolor="#ffffff"
     bordercolor="#666666"
     borderopacity="1"
     objecttolerance="10"
     gridtolerance="10"
     guidetolerance="10"
     inkscape:pageopacity="0"
     inkscape:pageshadow="2"
     inkscape:window-width="1920"
     inkscape:window-height="1017"
     id="namedview3682"
     showgrid="false"
     fit-margin-top="0"
     fit-margin-left="0"
     fit-margin-right="0"
     fit-margin-bottom="0"
     inkscape:zoom="7.712178"
     inkscape:cx="34.051914"
     inkscape:cy="1.9088319"
     inkscape:window-x="1358"
     inkscape:window-y="-8"
     inkscape:window-maximized="1"
     inkscape:current-layer="Layer_1" /><path
     style="fill:#000000"
     d=""
     id="path3688"
     inkscape:connector-curvature="0" /><path
     style="fill:#000000;stroke-width:0.12497881"
     d="m 0,26.248585 v -6.99881 h 21.121419 21.121419 v 6.99881 6.99882 H 21.121419 0 Z m 73.799988,6.72783 c -1.205655,-0.23762 -1.3057,-0.23899 -2.83319,-0.039 -1.282671,0.16796 -1.75344,0.18096 -2.478679,0.0684 -1.422897,-0.22077 -2.280762,-0.74193 -2.791172,-1.69567 -0.388775,-0.72645 -0.382898,-2.40758 0.01101,-3.14847 0.693228,-1.30389 2.472922,-1.90901 5.6237,-1.91214 l 1.031074,-0.001 v -0.63451 c 0,-0.82352 -0.429219,-1.30175 -1.283284,-1.42983 -0.742169,-0.11129 -2.437174,0.11695 -3.79878,0.51152 -0.591276,0.17135 -1.099403,0.28718 -1.129173,0.25741 -0.02977,-0.0298 -0.126329,-0.54246 -0.214574,-1.13931 -0.184437,-1.24744 -0.312782,-1.08836 1.243744,-1.54156 1.588993,-0.46266 2.356108,-0.57564 3.869789,-0.56996 1.255877,0.005 1.619258,0.0521 2.234725,0.29137 0.941409,0.36599 1.59616,0.96185 1.964255,1.78758 0.284719,0.6387 0.293214,0.76537 0.339407,5.0606 l 0.04738,4.4055 -0.293223,-0.0123 c -0.161272,-0.007 -0.855626,-0.12318 -1.54301,-0.25865 z m -2.601481,-2.15792 c 1.373098,-0.28901 1.289204,-0.19408 1.289204,-1.45881 v -1.11144 h -1.316292 c -1.930257,0 -2.562596,0.35499 -2.554077,1.43382 0.0047,0.6019 0.18899,0.87438 0.758292,1.12146 0.5386,0.23376 0.774209,0.2357 1.822873,0.015 z m 26.972349,2.15854 c -1.204809,-0.23685 -1.30826,-0.23826 -2.874512,-0.0391 -1.886695,0.23986 -2.810651,0.14801 -3.90697,-0.38837 -1.158996,-0.56704 -1.78387,-1.81975 -1.599818,-3.2072 0.117031,-0.88222 0.337913,-1.35284 0.883755,-1.88295 0.836362,-0.81227 2.504792,-1.20736 5.10869,-1.20976 l 1.110553,-0.001 -0.0802,-0.59365 c -0.173882,-1.28717 -0.845192,-1.63309 -2.765802,-1.4252 -0.687384,0.0744 -1.748105,0.28104 -2.357158,0.45919 -0.609055,0.17815 -1.126016,0.30527 -1.148803,0.28248 -0.06506,-0.065 -0.3039,-1.62312 -0.30495,-1.98928 -8.74e-4,-0.31362 0.06667,-0.34811 1.405068,-0.71717 3.455121,-0.95275 5.824372,-0.8071 7.215428,0.44358 1.050862,0.94481 1.05425,0.96348 1.102046,6.07087 l 0.04181,4.46799 -0.289677,-0.0123 c -0.159323,-0.007 -0.852083,-0.12292 -1.539467,-0.25805 z m -1.999661,-2.27213 0.624894,-0.1603 0.03594,-1.14818 0.03593,-1.14818 -1.223232,7.5e-4 c -1.568528,8.8e-4 -2.102051,0.1473 -2.416567,0.66311 -0.462731,0.7589 -0.231709,1.5577 0.553229,1.91289 0.431282,0.19515 1.338826,0.14957 2.389807,-0.12003 z m -48.679247,-2.57205 v -4.86458 l 0.311982,-0.37077 c 1.009434,-1.19965 5.459002,-1.64764 7.321914,-0.73719 l 0.572593,0.27984 0.824878,-0.28298 c 1.683954,-0.5777 3.781339,-0.62464 5.008099,-0.11206 0.589013,0.2461 1.302172,0.90785 1.621493,1.50459 0.264901,0.49505 0.275052,0.65759 0.310972,4.97974 l 0.03713,4.468 h -1.630613 -1.630612 v -3.81806 c 0,-4.20633 -0.02801,-4.3815 -0.748328,-4.67986 -0.433025,-0.17937 -1.625619,-0.11385 -2.126185,0.11681 l -0.312447,0.14397 0.0361,4.11857 0.0361,4.11857 h -1.629576 -1.629576 v -3.81806 c 0,-4.20633 -0.02801,-4.3815 -0.748328,-4.67986 -0.435674,-0.18046 -1.68425,-0.11218 -2.109415,0.11536 -0.264037,0.14131 -0.266728,0.18432 -0.266728,4.26265 v 4.11991 h -1.624724 -1.624725 z m 33.226393,4.58255 c -1.376402,-0.48149 -2.095493,-1.09282 -2.714063,-2.30734 -0.821736,-1.61342 -0.837769,-4.39638 -0.03577,-6.20943 0.934193,-2.11189 3.556052,-2.97834 6.423438,-2.12276 0.20307,0.0606 0.218713,-0.10966 0.218713,-2.38025 0,-1.34503 0.01406,-2.44796 0.03125,-2.45094 0.01718,-0.003 0.74759,-0.13494 1.623121,-0.29322 0.875533,-0.15829 1.620719,-0.25895 1.655969,-0.2237 0.127852,0.12785 0.06465,14.20051 -0.06589,14.67051 -0.286924,1.03309 -1.556001,1.48558 -4.369257,1.55784 -1.779032,0.0457 -2.004955,0.026 -2.767505,-0.24071 z m 3.759252,-2.27503 c 0.08794,-0.0543 0.133062,-1.06994 0.133062,-2.99479 v -2.91255 l -0.747338,-0.15859 c -0.909721,-0.19306 -1.793193,-0.10969 -2.235186,0.21092 -0.181178,0.13143 -0.469097,0.51724 -0.639819,0.85735 -0.268597,0.53511 -0.310424,0.78674 -0.310535,1.86819 -1.25e-4,1.37558 0.155019,1.98556 0.656729,2.58181 0.502438,0.59711 0.946558,0.74524 2.049522,0.68359 0.528276,-0.0295 1.02038,-0.0907 1.093565,-0.13593 z M 0,7.0643355 V 0.00303547 h 21.119363 21.119365 l 0.0333,7.00928003 c 0.01832,3.8550995 0.0099,7.0326895 -0.01877,7.0612995 -0.02864,0.0286 -9.547339,0.052 -21.152664,0.052 H 0 Z m 51.514515,5.9247595 c -1.503726,-0.25696 -2.878981,-1.25845 -3.46551,-2.52367 -0.484118,-1.0442995 -0.586655,-1.8213195 -0.529463,-4.0121895 0.04465,-1.71044 0.09482,-2.12137 0.333333,-2.73053 0.625717,-1.59808 1.684252,-2.64862 3.120401,-3.09684003 0.685767,-0.21403 1.151822,-0.24789 3.411335,-0.24789 h 2.617054 l -0.06612,0.40618 C 56.899175,1.0075555 56.81227,1.5240455 56.742412,1.9319155 c -0.06986,0.40787 -0.127014,0.75937 -0.127014,0.78112 0,0.0217 -0.845848,0.0395 -1.879662,0.0395 -1.601826,0 -1.948199,0.0351 -2.343352,0.23779 -1.134926,0.58202 -1.429101,1.27358 -1.499941,3.52611 -0.04139,1.31617 -0.0082,1.85779 0.146675,2.3904 0.262066,0.90147 0.912438,1.5115595 1.818508,1.7058795 1.018603,0.21845 13.767027,0.19012 14.291251,-0.0318 0.604768,-0.25597 0.869819,-0.6273795 0.925588,-1.2970195 0.05667,-0.6804 -0.113548,-1.07683 -0.625897,-1.45772 -0.323292,-0.24034 -0.566136,-0.26746 -2.937002,-0.328 -2.366905,-0.0605 -2.640285,-0.0909 -3.246144,-0.36142 -1.55808,-0.69575 -2.261149,-2.49953 -1.704656,-4.37345 0.382277,-1.28727 1.653222,-2.21476003 3.428551,-2.50203003 0.446799,-0.0723 2.627188,-0.13188 4.84531,-0.1324 l 4.032947,-0.001 -0.05926,0.28121 c -0.03259,0.15466 -0.123106,0.68894003 -0.201141,1.18729003 l -0.141883,0.9061 h -3.62024 c -3.922561,0 -4.577491,0.0782 -4.983956,0.59491 -0.481052,0.61156 -0.231944,1.82542 0.437176,2.13029 0.203959,0.0929 0.997976,0.15025 2.102767,0.15179 3.502804,0.005 4.722241,0.45319 5.561821,2.04471 0.298452,0.56575 0.337438,0.77738 0.336597,1.82716 -7.5e-4,0.9890895 -0.04957,1.2863395 -0.292189,1.7806095 -0.391134,0.79682 -1.148296,1.41658 -2.13872,1.75059 -0.805989,0.27181 -0.930194,0.27604 -8.753744,0.29782 -4.364885,0.0121 -8.235017,-0.029 -8.600293,-0.0914 z m 41.469721,-1.11533 c -0.4468,-0.0597 -1.12918,-0.20296 -1.516402,-0.31844 -0.593013,-0.17685 -0.831135,-0.18783 -1.509983,-0.0696 -0.917187,0.15972 -16.970865,0.20382 -16.969282,0.0466 0.0015,-0.14931 0.244723,-1.6894895 0.317042,-2.0076795 l 0.06574,-0.28921 3.057704,0.0393 3.057704,0.0393 -1.15e-4,-2.1332 c -8.4e-5,-1.55838 -0.05208,-2.30817 -0.192949,-2.78254 -0.194505,-0.65497 -0.743335,-1.40418 -1.230317,-1.67951 -0.15513,-0.0877 -1.037422,-0.17597 -2.138745,-0.21394 l -1.874682,-0.0646 0.170618,-1.15606 0.170619,-1.15605003 h 1.896518 c 3.236799,0 4.621873,0.60694 5.739995,2.51525003 0.546991,0.93355 0.717648,1.86008 0.797048,4.32734 l 0.0734,2.28086 h 2.973518 c 2.24157,0 2.998407,-0.0385 3.074628,-0.15622 0.05561,-0.0859 0.12923,-1.61848 0.1636,-3.40567 l 0.06249,-3.24945 0.336399,-0.57222 c 0.512779,-0.87224003 1.330995,-1.34307003 2.91305,-1.67627003 4.515467,-0.95103 7.761266,1.71753003 7.523286,6.18532003 -0.07859,1.47539 -0.318415,2.26328 -0.995804,3.2715 -1.164772,1.7336195 -3.400646,2.5677295 -5.965077,2.2253095 z m 2.634343,-3.0314495 c 0.620261,-0.418 0.94586,-0.98423 1.110888,-1.93188 0.283773,-1.62955 -0.167843,-3.33037 -1.021328,-3.8464 -0.332665,-0.20113 -0.615931,-0.24604 -1.474115,-0.2337 -1.12077,0.0161 -2.070605,0.25543 -2.049653,0.51643 0.0069,0.0856 0.02093,1.38906 0.03124,2.89652 0.02178,3.18398 -0.193121,2.83818 1.781213,2.86618 1.057677,0.015 1.250093,-0.0167 1.62175,-0.26715 z"
     id="path3729"
     inkscape:connector-curvature="0"
     sodipodi:nodetypes="ccccccccccssscccsssccscsssccccsscscssssscscccssccscsccscccccsccccccccsscscccssccccccsscsccccssssssscssscscscccsccccccscscccssscsccssssscsscssssccccscssssccsssccssscccccsscscccssscscscsssssscssssss" /></svg>