<?xml version="1.0" encoding="UTF-8" standalone="no"?>
<!-- Created with Inkscape (http://www.inkscape.org/) -->

<svg
   xmlns:dc="http://purl.org/dc/elements/1.1/"
   xmlns:cc="http://creativecommons.org/ns#"
   xmlns:rdf="http://www.w3.org/1999/02/22-rdf-syntax-ns#"
   xmlns:svg="http://www.w3.org/2000/svg"
   xmlns="http://www.w3.org/2000/svg"
   xmlns:sodipodi="http://sodipodi.sourceforge.net/DTD/sodipodi-0.dtd"
   xmlns:inkscape="http://www.inkscape.org/namespaces/inkscape"
   version="1.1"
   id="svg3690"
   width="100"
   height="25.866377"
   viewBox="0 0 100 25.866377"
   sodipodi:docname="sadad.svg"
   inkscape:version="0.92.1 r15371">
  <metadata
     id="metadata3696">
    <rdf:RDF>
      <cc:Work
         rdf:about="">
        <dc:format>image/svg+xml</dc:format>
        <dc:type
           rdf:resource="http://purl.org/dc/dcmitype/StillImage" />
        <dc:title></dc:title>
      </cc:Work>
    </rdf:RDF>
  </metadata>
  <defs
     id="defs3694" />
  <sodipodi:namedview
     pagecolor="#ffffff"
     bordercolor="#666666"
     borderopacity="1"
     objecttolerance="10"
     gridtolerance="10"
     guidetolerance="10"
     inkscape:pageopacity="1"
     inkscape:pageshadow="2"
     inkscape:window-width="1920"
     inkscape:window-height="1017"
     id="namedview3692"
     showgrid="false"
     fit-margin-top="0"
     fit-margin-left="0"
     fit-margin-right="0"
     fit-margin-bottom="0"
     inkscape:zoom="1.7700001"
     inkscape:cx="9.7649766"
     inkscape:cy="33.378602"
     inkscape:window-x="1358"
     inkscape:window-y="-8"
     inkscape:window-maximized="1"
     inkscape:current-layer="svg3690" />
  <path
     style="fill:#000000;stroke-width:0.40508822"
     d="M 0,25.506629 C 0,25.275155 0.37767389,24.076332 0.83926181,22.842584 L 1.678554,20.599402 h 7.4022381 c 8.1671559,0 8.0326869,0.04027 9.1307399,-2.734713 0.875324,-2.212028 0.254446,-2.531433 -4.920516,-2.531433 -4.9911833,0 -4.6121727,0.364507 -3.3695949,-3.240707 L 10.410079,10.67474 15.71793,10.561844 c 3.356804,0.112324 4.372249,-0.208262 6.643791,1.081498 1.210495,1.082242 1.331839,1.397138 1.292252,3.353602 -0.08009,3.960885 -2.517269,7.705349 -6.347206,9.751867 -1.574649,0.841392 -2.33185,0.924726 -9.5088387,1.04644 C 2.5896076,25.88358 0,25.787747 0,25.506629 Z m 25.932807,0.03803 c 0.0039,-0.157705 2.076462,-5.93772 4.60561,-12.844473 l 4.598441,-12.55773546 2.2809,-0.121487 c 1.352832,-0.07206 2.280869,0.04581 2.280869,0.289689 0,0.592104 -7.998508,22.55983746 -8.727059,23.96873646 -0.335929,0.649592 -0.92509,1.205907 -1.309265,1.236258 -0.384176,0.03035 -1.38209,0.113816 -2.217585,0.185471 -0.835494,0.07166 -1.51586,0.0012 -1.511911,-0.156456 z m 10.120026,0.204936 c 0,-0.06377 0.420694,-1.203085 0.934873,-2.531801 l 0.934872,-2.415846 4.230003,-0.10018 c 2.326503,-0.0551 4.636842,-0.19446 5.134098,-0.309686 1.110934,-0.257441 2.226639,-2.301687 2.057109,-3.769183 -0.123653,-1.070359 -0.177034,-1.088907 -3.467545,-1.204749 -1.838088,-0.06471 -3.341978,-0.18521 -3.341978,-0.267772 0,-0.08256 0.389857,-1.16893 0.866393,-2.414148 l 0.866392,-2.264029 3.69085,0.0015 c 2.923988,0.0012 3.955687,0.163012 4.965602,0.778823 2.321551,1.415583 2.589091,4.572373 0.697805,8.232875 l -0.575579,1.11399 h 8.859583 c 10.260055,0 9.494165,0.302209 11.309922,-4.462622 l 1.155261,-3.031493 2.516206,-0.120676 2.516236,-0.120675 -1.172275,3.158837 c -0.644728,1.737361 -1.303523,3.477845 -1.463969,3.867741 -0.255692,0.62138 -0.03303,0.708904 1.803696,0.708904 1.152496,0 2.433841,-0.181114 2.847456,-0.402475 0.423186,-0.22648 1.32075,-1.909281 2.052583,-3.848339 l 1.300545,-3.445862 h 2.376754 c 1.342777,0 2.376754,0.179437 2.376754,0.412464 0,0.226853 -0.61386,1.958606 -1.364134,3.848339 l -1.364135,3.435873 h 2.314077 c 2.841987,0 3.308558,-0.438377 4.81421,-4.523434 l 1.094923,-2.970697 2.559226,-0.121654 c 1.407581,-0.06691 2.495423,0.03222 2.417405,0.220282 -0.07799,0.188068 -0.685592,1.88342 -1.35022,3.767451 -0.977042,2.769655 -1.598164,3.819018 -3.244149,5.480808 -3.524572,3.558447 -2.135585,3.413393 -32.685183,3.413393 -14.664994,0 -26.663667,-0.05218 -26.663667,-0.115959 z"
     id="path3718"
     inkscape:connector-curvature="0"
     sodipodi:nodetypes="sccscsccccccsscscsscscccsccccccsccccccsccccccscccssscsscscccsss" />
  <path
     style="fill:#000000;stroke-width:1.33333325"
     d=""
     id="path3700"
     inkscape:connector-curvature="0" />
</svg>
